<?xml version="1.0" encoding="utf-8"?>
<!-- Generator: Adobe Illustrator 23.0.2, SVG Export Plug-In . SVG Version: 6.00 Build 0)  -->
<svg version="1.1" xmlns="http://www.w3.org/2000/svg" xmlns:xlink="http://www.w3.org/1999/xlink" x="0px" y="0px"
	 viewBox="0 0 244.8 215.8" style="enable-background:new 0 0 244.8 215.8;" xml:space="preserve">
<style type="text/css">
	.st0{fill:#E1251B;}
	.st1{fill:#FFFFFF;}
	.st2{fill:#0033A1;}
	.st3{fill:#ED1C24;}
</style>
<g id="Layer_2">
</g>
<g id="Layer_1">
	<rect x="58" y="162.5" class="st0" width="128.7" height="16.1"/>
	<g>
		<rect y="169.6" class="st0" width="72.3" height="1.8"/>
		<rect x="176.7" y="169.6" class="st0" width="68.1" height="1.8"/>
	</g>
	<g>
		<g>
			<path class="st1" d="M79.2,175.6v-9.4h1.6v9.4H79.2z"/>
			<path class="st1" d="M86.6,175.9c-1.7,0-2.9-0.6-4.2-1.7l1-1.2c1.3,1,2.2,1.4,3.5,1.4c1.3,0,1.9-0.6,1.9-1.4c0-2.1-6.1-1-6.1-4.4
				c0-1.6,1.5-2.9,3.9-2.9c1.8,0,3.2,0.7,4,1.9l-1.1,1c-0.7-0.8-1.7-1.4-2.8-1.4c-1.3,0-2.2,0.5-2.2,1.3c0,1.9,6.1,1.2,6.1,4.4
				C90.5,174.7,89,175.9,86.6,175.9z"/>
			<path class="st1" d="M96.2,175.9c-2.7,0-4.3-1.9-4.3-4v-2.1c0-2.1,1.5-4,4.3-4c2.7,0,4.3,1.8,4.3,4v2.1
				C100.5,174,98.9,175.9,96.2,175.9z M98.8,169.8c0-1.4-0.9-2.6-2.6-2.6s-2.6,1.1-2.6,2.6v2.1c0,1.4,0.9,2.6,2.6,2.6
				s2.6-1.2,2.6-2.6V169.8z"/>
			<path class="st1" d="M102.7,177h-1.1l3.8-11.7h1.1L102.7,177z"/>
			<path class="st1" d="M107.8,175.6v-9.4h1.6v9.4H107.8z"/>
			<path class="st1" d="M111.6,175.6v-9.4h6.8v1.4h-5.2v2.5h3.9v1.3h-3.9v2.8h5.2v1.4H111.6z"/>
			<path class="st1" d="M126.9,169c-0.5-0.9-1.3-1.7-2.7-1.7c-1.8,0-2.8,1.1-2.8,2.7v1.8c0,1.5,1,2.7,2.8,2.7c1.3,0,2.2-0.7,2.7-1.8
				l1.3,0.6c-0.6,1.3-1.9,2.6-4.1,2.6c-2.8,0-4.4-1.9-4.4-4.1v-1.7c0-2.3,1.6-4.2,4.5-4.2c2,0,3.5,1.3,4,2.5L126.9,169z"/>
			<path class="st1" d="M133.8,175.6v-8.7c0.6,0,0.8-0.4,0.8-0.8h0.8v9.4H133.8z"/>
			<path class="st1" d="M140.5,175.6h-1.7c0.3-2.6,2-6,4.2-8.1h-5.7v-1.4h7.5v1.1C142.4,169.7,141,172.3,140.5,175.6z"/>
			<path class="st1" d="M149.8,175.9c-2.6,0-4-1.8-4-3.8v-2.4c0-2.1,1.5-3.8,4-3.8c2.5,0,4,1.8,4,3.8v2.4
				C153.8,174.1,152.4,175.9,149.8,175.9z M152.3,169.7c0-1.3-0.8-2.4-2.4-2.4c-1.7,0-2.4,1.1-2.4,2.4v2.4c0,1.3,0.8,2.4,2.4,2.4
				c1.7,0,2.4-1.2,2.4-2.4V169.7z"/>
			<path class="st1" d="M155.3,175.6v-0.5c0-3.9,5.6-4.3,5.6-6.3c0-0.8-0.6-1.5-2-1.5c-1.2,0-1.8,0.6-2.4,1.5l-1.1-0.8
				c0.7-1.2,1.9-2,3.6-2c2.3,0,3.5,1.4,3.5,2.8c0,2.7-4.6,3.2-5.5,5.5h5.4v1.4H155.3z"/>
			<path class="st1" d="M164.5,175.6v-8.7c0.6,0,0.8-0.4,0.8-0.8h0.8v9.4H164.5z"/>
			<path class="st2" d="M30.5,197.5v-8.7l-0.6,1.4l-3.2,7.3h-1.4l-3.2-7.3l-0.6-1.4v8.7h-1.8v-11.2h2.7l3.1,7.4l0.5,1.4l0.5-1.4
				l3.1-7.4h2.7v11.2H30.5z"/>
			<path class="st2" d="M42.8,197.5l-1.1-2.8h-4.7l-1.1,2.8h-2l4.5-11.2h1.8l4.6,11.2H42.8z M39.3,188.6l-1.8,4.6h3.6L39.3,188.6z"
				/>
			<path class="st2" d="M54.4,197.5l-5.3-6.7l-0.9-1.3v8h-1.9v-11.2H48l5.1,6.7l0.9,1.3v-8h1.9v11.2H54.4z"/>
			<path class="st2" d="M66.3,197.5l-1.1-2.8h-4.7l-1.1,2.8h-2l4.5-11.2h1.8l4.6,11.2H66.3z M62.8,188.6l-1.8,4.6h3.6L62.8,188.6z"
				/>
			<path class="st2" d="M77.9,197.5l-0.3-1.3c-0.8,1-2,1.7-3.5,1.7c-3.2,0-5-2.2-5-4.9v-2c0-2.7,2-5,5.3-5c2.5,0,3.8,1.1,4.7,2.8
				l-1.6,0.9c-0.6-1.1-1.6-2-3.1-2c-2.2,0-3.3,1.4-3.3,3.2v2.2c0,1.8,1.2,3.2,3.3,3.2c1.7,0,2.8-1.2,2.8-2.6v-0.4h-2.6v-1.6H79v5.9
				H77.9z"/>
			<path class="st2" d="M81.3,197.5v-11.2h8.1v1.7h-6.2v2.9h4.6v1.6h-4.6v3.3h6.2v1.7H81.3z"/>
			<path class="st2" d="M102.3,197.5v-8.7l-0.6,1.4l-3.2,7.3h-1.4l-3.2-7.3l-0.6-1.4v8.7h-1.8v-11.2h2.7l3.1,7.4l0.5,1.4l0.5-1.4
				l3.1-7.4h2.7v11.2H102.3z"/>
			<path class="st2" d="M106.9,197.5v-11.2h8.1v1.7h-6.2v2.9h4.6v1.6h-4.6v3.3h6.2v1.7H106.9z"/>
			<path class="st2" d="M125.2,197.5l-5.3-6.7l-0.9-1.3v8h-1.9v-11.2h1.7l5.1,6.7l0.9,1.3v-8h1.9v11.2H125.2z"/>
			<path class="st2" d="M134.4,188v9.5h-1.9V188h-3.8v-1.7h9.6v1.7H134.4z"/>
			<path class="st2" d="M148.7,197.9c-2,0-3.5-0.7-5-2l1.2-1.4c1.5,1.2,2.6,1.7,4.2,1.7c1.5,0,2.3-0.7,2.3-1.6
				c0-2.5-7.3-1.2-7.3-5.2c0-1.9,1.7-3.4,4.6-3.4c2.1,0,3.8,0.8,4.7,2.2l-1.3,1.1c-0.8-1-2-1.7-3.4-1.7c-1.5,0-2.6,0.6-2.6,1.5
				c0,2.2,7.3,1.4,7.3,5.2C153.3,196.4,151.5,197.9,148.7,197.9z"/>
			<path class="st2" d="M160.5,193v4.5h-1.9V193l-4.4-6.7h2.2l3.3,5.2l3.1-5.2h2.1L160.5,193z"/>
			<path class="st2" d="M170.2,197.9c-2,0-3.5-0.7-5-2l1.2-1.4c1.5,1.2,2.6,1.7,4.2,1.7c1.5,0,2.3-0.7,2.3-1.6
				c0-2.5-7.3-1.2-7.3-5.2c0-1.9,1.7-3.4,4.6-3.4c2.1,0,3.8,0.8,4.7,2.2l-1.3,1.1c-0.8-1-2-1.7-3.4-1.7c-1.5,0-2.6,0.6-2.6,1.5
				c0,2.2,7.3,1.4,7.3,5.2C174.9,196.4,173,197.9,170.2,197.9z"/>
			<path class="st2" d="M181.9,188v9.5h-1.9V188h-3.8v-1.7h9.6v1.7H181.9z"/>
			<path class="st2" d="M187.6,197.5v-11.2h8.1v1.7h-6.2v2.9h4.6v1.6h-4.6v3.3h6.2v1.7H187.6z"/>
			<path class="st2" d="M208.6,197.5v-8.7l-0.6,1.4l-3.2,7.3h-1.4l-3.2-7.3l-0.6-1.4v8.7h-1.8v-11.2h2.7l3.1,7.4l0.5,1.4l0.5-1.4
				l3.1-7.4h2.7v11.2H208.6z"/>
			<path class="st2" d="M217.4,197.9c-2,0-3.5-0.7-5-2l1.2-1.4c1.5,1.2,2.6,1.7,4.2,1.7c1.5,0,2.3-0.7,2.3-1.6
				c0-2.5-7.3-1.2-7.3-5.2c0-1.9,1.7-3.4,4.6-3.4c2.1,0,3.8,0.8,4.7,2.2l-1.3,1.1c-0.8-1-2-1.7-3.4-1.7c-1.5,0-2.6,0.6-2.6,1.5
				c0,2.2,7.3,1.4,7.3,5.2C222,196.4,220.1,197.9,217.4,197.9z"/>
			<path class="st2" d="M45.1,207.6c-0.5-1.1-1.6-2.1-3.2-2.1c-2.2,0-3.3,1.4-3.3,3.2v2.2c0,1.8,1.2,3.2,3.4,3.2
				c1.5,0,2.6-0.9,3.2-2.1l1.6,0.7c-0.7,1.5-2.3,3-4.9,3c-3.4,0-5.2-2.2-5.2-4.9v-2c0-2.7,2-5,5.3-5c2.4,0,4.2,1.5,4.8,3L45.1,207.6
				z"/>
			<path class="st2" d="M48.5,215.4v-11.2h8.1v1.7h-6.2v2.9h4.6v1.6h-4.6v3.3h6.2v1.7H48.5z"/>
			<path class="st2" d="M67.1,215.5c-1,0-1.4-0.6-1.4-1.8l0-1.5c0-1-0.5-1.5-2-1.5h-2.9v4.7h-1.9v-11.2h4.9c2.8,0,4,1.2,4,2.9v0.4
				c0,1.2-0.5,2.2-2.3,2.5c1.7,0.2,2.2,1.1,2.2,2.3l0,1.3c0,0.6,0.2,0.9,0.6,1.2v0.7H67.1z M65.7,207.2c0-0.8-0.5-1.4-1.8-1.4h-3.1
				v3.5h3.1c1.2,0,1.8-0.6,1.8-1.6V207.2z"/>
			<path class="st2" d="M75,205.9v9.5h-1.9v-9.5h-3.8v-1.7h9.6v1.7H75z"/>
			<path class="st2" d="M80.7,215.4v-11.2h1.9v11.2H80.7z"/>
			<path class="st2" d="M87.3,205.9v3.2h4.6v1.6h-4.6v4.7h-1.9v-11.2h8v1.7H87.3z"/>
			<path class="st2" d="M95.2,215.4v-11.2h1.9v11.2H95.2z"/>
			<path class="st2" d="M107.8,207.6c-0.5-1.1-1.6-2.1-3.2-2.1c-2.2,0-3.3,1.4-3.3,3.2v2.2c0,1.8,1.2,3.2,3.4,3.2
				c1.5,0,2.6-0.9,3.1-2.1l1.6,0.7c-0.7,1.5-2.3,3-4.9,3c-3.4,0-5.2-2.2-5.2-4.9v-2c0-2.7,2-5,5.3-5c2.4,0,4.2,1.5,4.8,3
				L107.8,207.6z"/>
			<path class="st2" d="M119,215.4l-1.1-2.8h-4.7l-1.1,2.8h-2l4.5-11.2h1.8l4.6,11.2H119z M115.5,206.5l-1.8,4.6h3.6L115.5,206.5z"
				/>
			<path class="st2" d="M126.6,205.9v9.5h-1.9v-9.5h-3.8v-1.7h9.6v1.7H126.6z"/>
			<path class="st2" d="M132.3,215.4v-11.2h1.9v11.2H132.3z"/>
			<path class="st2" d="M141.6,215.8c-3.3,0-5.1-2.2-5.1-4.8v-2.4c0-2.5,1.8-4.7,5.1-4.7c3.3,0,5.1,2.2,5.1,4.7v2.4
				C146.7,213.5,144.9,215.8,141.6,215.8z M144.7,208.6c0-1.7-1.1-3-3.1-3s-3.1,1.4-3.1,3v2.5c0,1.7,1.1,3,3.1,3s3.1-1.4,3.1-3
				V208.6z"/>
			<path class="st2" d="M157,215.4l-5.3-6.7l-0.9-1.3v8h-1.9v-11.2h1.7l5.1,6.7l0.9,1.3v-8h1.9v11.2H157z"/>
			<path class="st2" d="M170.9,215.4h-5.3v-11.2h5.2c2.5,0,3.6,1.1,3.6,2.8v0.3c0,1.3-0.7,2.2-2,2.4c1.5,0.3,2.2,1.3,2.2,2.3v0.5
				C174.6,214.3,173.4,215.4,170.9,215.4z M172.5,207.2c0-0.8-0.4-1.4-1.7-1.4h-3.4v3.3h3.2c1.2,0,1.8-0.6,1.8-1.5V207.2z
				 M172.6,212c0-0.9-0.6-1.5-1.8-1.5h-3.3v3.3h3.4c1.2,0,1.7-0.6,1.7-1.4V212z"/>
			<path class="st2" d="M181.5,215.8c-3.3,0-5.1-2.2-5.1-4.8v-2.4c0-2.5,1.8-4.7,5.1-4.7c3.3,0,5.1,2.2,5.1,4.7v2.4
				C186.6,213.5,184.7,215.8,181.5,215.8z M184.6,208.6c0-1.7-1.1-3-3.1-3c-2.1,0-3.1,1.4-3.1,3v2.5c0,1.7,1.1,3,3.1,3
				c2.1,0,3.1-1.4,3.1-3V208.6z"/>
			<path class="st2" d="M193.5,215.4h-4.7v-11.2h4.7c3.2,0,5,2,5,4.4v2.5C198.5,213.5,196.7,215.4,193.5,215.4z M196.6,208.7
				c0-1.7-1.1-2.8-3.1-2.8h-2.7v7.8h2.7c2,0,3.1-1.1,3.1-2.8V208.7z"/>
			<path class="st2" d="M205.4,210.9v4.5h-1.9v-4.5l-4.4-6.7h2.2l3.3,5.2l3.1-5.2h2.1L205.4,210.9z"/>
		</g>
	</g>
	<g>
		<path class="st2" d="M95.6,75c0-3.1,8.8-5.7,19.6-5.7s19.6,2.5,19.6,5.7s-8.8,5.7-19.6,5.7S95.6,78.2,95.6,75z"/>
		<polygon class="st2" points="127.6,73.2 124,128 110,128.9 103.8,74.2 		"/>
		<g>
			<path class="st2" d="M14.4,149.8l-1.6-3H5.7l-1.5,3H1.8l6.5-12.1h1.9l6.7,12.1H14.4z M9.2,140.1l-2.6,5.1h5.4L9.2,140.1z"/>
			<path class="st2" d="M40.9,141.1c-1.1-1-2.7-1.9-4.9-1.9c-3.2,0-5.1,2.2-5.1,4.5v0.2c0,2.3,1.8,4.4,5.2,4.4c2,0,3.7-1,4.7-1.9
				l1.4,1.4c-1.3,1.3-3.6,2.4-6.3,2.4c-4.6,0-7.4-3-7.4-6.3v-0.4c0-3.3,3-6.4,7.5-6.4c2.6,0,4.9,1.1,6.1,2.4L40.9,141.1z"/>
			<path class="st2" d="M67.6,141.1c-1.1-1-2.7-1.9-4.9-1.9c-3.2,0-5.1,2.2-5.1,4.5v0.2c0,2.3,1.8,4.4,5.2,4.4c2,0,3.7-1,4.7-1.9
				l1.4,1.4c-1.3,1.3-3.6,2.4-6.3,2.4c-4.6,0-7.4-3-7.4-6.3v-0.4c0-3.3,3-6.4,7.5-6.4c2.6,0,4.9,1.1,6.1,2.4L67.6,141.1z"/>
			<path class="st2" d="M93.3,149.8c-0.6,0-0.9-0.9-1-1.9l-0.1-1.2c-0.1-1.2-0.6-1.7-2.8-1.7h-4.3v4.9h-2.3v-12.1h6.6
				c3.6,0,5.3,1.5,5.3,3.3c0,1.3-0.7,2.6-3,3c2.4,0.2,2.9,1.3,2.9,2.7l0,1c0,0.8,0.2,1.4,0.7,2v0.1H93.3z M92.5,141.3
				c0-0.9-0.7-1.7-2.7-1.7h-4.7v3.6H90c1.7,0,2.5-0.8,2.5-1.8V141.3z"/>
			<path class="st2" d="M109.2,149.8v-12.1h11v1.9h-8.7v3.1h6.7v1.8h-6.7v3.4h8.7v1.9H109.2z"/>
			<path class="st2" d="M140.5,149.8h-6.2v-12.1h6.2c4.3,0,7,2.6,7,5.9v0.4C147.5,147.2,144.8,149.8,140.5,149.8z M145.2,143.6
				c0-2.3-1.8-4-4.8-4h-3.9v8.4h3.9c3,0,4.8-1.7,4.8-4.1V143.6z"/>
			<path class="st2" d="M161.5,149.8v-12.1h2.3v12.1H161.5z"/>
			<path class="st2" d="M185.3,139.6v10.2H183v-10.2h-5.3v-1.9h12.8v1.9H185.3z"/>
			<path class="st2" d="M204.6,149.8v-12.1h11v1.9h-8.7v3.1h6.7v1.8h-6.7v3.4h8.7v1.9H204.6z"/>
			<path class="st2" d="M235.8,149.8h-6.2v-12.1h6.2c4.3,0,7,2.6,7,5.9v0.4C242.8,147.2,240.1,149.8,235.8,149.8z M240.6,143.6
				c0-2.3-1.8-4-4.8-4h-3.9v8.4h3.9c3,0,4.8-1.7,4.8-4.1V143.6z"/>
		</g>
		<path class="st3" d="M118.6,28.9"/>
		<path class="st0" d="M132.8,41c0,0,1.4,7.9-5.8,11.1c2.4-8.1-2.4-10.9-2.8-11.8c5.4-5,13.8-13.1,2.3-40.3c0,0,3.5,17.2-4.5,24.4
			c-8,7.2-26.5,11.4-26.5,25.9c0.6,15.4,9.5,15.5,14.6,15.7c3,0,8.9,0.3,11.2-0.1c2.9-0.4,4.7-0.3,6.5-1.4
			C135.7,59.9,136.1,49.2,132.8,41z M107.2,55.4c-9.4-18.4,8-15.2,11.1-24.8C120.5,42.4,106.5,39.1,107.2,55.4z"/>
		<path class="st2" d="M132.8,62.9c-0.2-0.3-0.3-0.6-0.4-1c-0.1-0.7-0.1-1.9-0.1-1.9c0,0-0.6,0.9-1.1,1.4c-0.3,0.3-0.7,0.5-1,0.7
			c-0.7-0.2-1.4-0.4-2.1-0.5c-0.2-0.3-0.4-0.6-0.5-0.9c-0.1-0.7-0.2-1.9-0.2-1.9c0,0-0.5,0.9-1,1.5c-0.2,0.3-0.6,0.6-0.9,0.8
			c-0.7-0.1-1.4-0.2-2.2-0.3c-0.2-0.2-0.4-0.6-0.5-0.9c-0.2-0.7-0.3-1.8-0.3-1.8s-0.4,1-0.9,1.6c-0.2,0.3-0.6,0.6-0.8,0.9
			c-0.7-0.1-1.5-0.1-2.2-0.2c-0.2-0.2-0.5-0.5-0.6-0.9c-0.3-0.7-0.5-1.8-0.5-1.8s-0.4,1-0.7,1.7c-0.2,0.3-0.5,0.7-0.8,0.9
			c-0.7,0-1.5,0-2.2,0c-0.2-0.2-0.5-0.5-0.7-0.8c-0.3-0.7-0.6-1.8-0.6-1.8c0,0-0.3,1-0.6,1.7c-0.2,0.3-0.5,0.7-0.7,1
			c-0.7,0-1.5,0.1-2.2,0.2c-0.3-0.2-0.6-0.4-0.7-0.8c-0.4-0.7-0.8-1.7-0.8-1.7c0,0-0.2,1-0.5,1.7c-0.1,0.4-0.4,0.7-0.6,1
			c-0.7,0.1-1.4,0.2-2.2,0.4c-0.3-0.2-0.6-0.4-0.8-0.7c-0.4-0.6-0.9-1.6-0.9-1.6s-0.1,1.1-0.3,1.8c-0.1,0.4-0.3,0.8-0.5,1.1
			c-0.7,0.2-1.4,0.3-2.1,0.5c-0.3-0.1-0.6-0.4-0.8-0.6c-0.5-0.6-1-1.6-1-1.6c0,0,0,1.1-0.2,1.8c-0.1,0.4-0.3,0.8-0.5,1.1
			c-0.6,0.2-1.2,0.4-1.8,0.6c0.8,2.3,1.6,4.7,2.4,7c5.6-1.9,11.5-2.6,17.4-2.6c5.9,0,11.7,0.7,17.4,2.6c0.8-2.3,1.6-4.7,2.4-7
			C134.3,63.4,133.5,63.1,132.8,62.9z"/>
		<path class="st2" d="M230.3,102.9c7-1.5,10.9-7,10.9-12v-0.7c0-9.3-7.3-14.9-19.5-14.9h-35v53.4l-20.5-53.4H144L124,128l2.1-33.9
			c0,0-3-4.5-10.3-4.5c-7.3,0-9.7,4.5-9.7,4.5l0.9,9.6l-2-2.4l-3.5-4.3L83.6,75.4H66.1v53.4L45.6,75.4H23.3l-20.9,55h18.1l3.3-9.1
			h18l2.9,9.1h21.4h0.6h18.4v-25.9l3.6,4.4l18,21.5h16.4h0.9h17.1l3.3-9.1h18l2.9,9.1h21.4h0.6h35.1c12.1,0,19.4-5.5,19.4-14.9v-0.9
			C241.8,109.6,238,104.3,230.3,102.9z M28,109.3l5.3-15.5l4.7,15.5H28z M148.7,109.3l5.3-15.5l4.7,15.5H148.7z M221.1,111.9
			c0,2.8-1.6,4.1-5.6,4.1h-8.1v-9.2h8.1c3.9,0,5.6,1.3,5.6,4.1V111.9z M221.1,95c0,2.8-1.6,4.2-5.6,4.2h-8.1V90h8.1
			c3.9,0,5.6,1.3,5.6,4.1V95z"/>
		<path class="st1" d="M112.9,125.8c0,0.5-0.3,1-0.8,1s-0.8-0.4-0.8-0.9l0,0l0,0l0,0v0c-0.1-0.8-1.8-45.9-1.8-45.9
			S112.2,110.9,112.9,125.8L112.9,125.8L112.9,125.8L112.9,125.8L112.9,125.8z"/>
		<path class="st1" d="M115.8,125.9c0,0.5-0.4,1-0.8,1c-0.4,0-0.8-0.4-0.8-1h0v0l0,0l0,0c-0.1-0.8,0.1-50.6,0.2-50.6
			C114.4,75.3,115.4,110.9,115.8,125.9L115.8,125.9L115.8,125.9L115.8,125.9L115.8,125.9z"/>
		<path class="st1" d="M118.6,125.9L118.6,125.9L118.6,125.9c0,0.5-0.4,1-0.8,1c-0.4,0-0.8-0.5-0.8-1h0l0,0l0,0l0,0
			c-0.1-0.8,1.3-50.6,1.3-50.6C118.4,75.3,118.7,111,118.6,125.9L118.6,125.9L118.6,125.9z"/>
		<path class="st1" d="M121.5,125.9L121.5,125.9L121.5,125.9C121.5,125.9,121.5,125.9,121.5,125.9L121.5,125.9c0,0.6-0.4,1-0.8,0.9
			c-0.4,0-0.8-0.5-0.8-1h0l0,0l0,0l0,0c-0.1-0.8,2.9-45.8,2.9-45.8S121.9,111,121.5,125.9z"/>
	</g>
</g>
</svg>
