<?xml version="1.0" encoding="utf-8"?>
<!-- Generator: Adobe Illustrator 23.0.2, SVG Export Plug-In . SVG Version: 6.00 Build 0)  -->
<svg version="1.1" id="Layer_1" xmlns="http://www.w3.org/2000/svg" xmlns:xlink="http://www.w3.org/1999/xlink" x="0px" y="0px"
	 viewBox="0 0 512 512" style="enable-background:new 0 0 512 512;" xml:space="preserve">
<style type="text/css">
	.st0{fill:#273374;}
</style>
<path class="st0" d="M256,24c-13.3,0-24,10.7-24,24s10.7,24,24,24c13.3,0,24-10.7,24-24S269.3,24,256,24z M256,56c-4.4,0-8-3.6-8-8
	s3.6-8,8-8s8,3.6,8,8S260.4,56,256,56z"/>
<path class="st0" d="M424,64h-72c0-13.3-10.7-24-24-24h-24.7C298.9,13.9,274.2-3.8,248,0.6C227.8,4,212,19.8,208.6,40H184
	c-13.3,0-24,10.7-24,24H88c-13.3,0-24,10.7-24,24v400c0,13.3,10.7,24,24,24h336c13.3,0,24-10.7,24-24V88C448,74.7,437.3,64,424,64z
	 M352,112h48v352H176v-40c0-13.3-10.7-24-24-24h-40V112h48c0,4.4,3.6,8,8,8h176C348.4,120,352,116.4,352,112z M160,452.7L123.3,416
	H152c4.4,0,8,3.6,8,8V452.7z M176,64c0-4.4,3.6-8,8-8h32c4.4,0,8-3.6,8-8c0-17.7,14.3-32,32-32s32,14.3,32,32c0,4.4,3.6,8,8,8h32
	c4.4,0,8,3.6,8,8v40H176V64z M432,488c0,4.4-3.6,8-8,8H88c-4.4,0-8-3.6-8-8V88c0-4.4,3.6-8,8-8h72v16h-56c-4.4,0-8,3.6-8,8v304
	c0,2.1,0.8,4.2,2.3,5.7l64,64c1.5,1.5,3.5,2.3,5.7,2.3h240c4.4,0,8-3.6,8-8V104c0-4.4-3.6-8-8-8h-56V80h72c4.4,0,8,3.6,8,8V488z"/>
<path class="st0" d="M182.4,321.6c40.6,40.7,106.5,40.7,147.2,0.2s40.7-106.5,0.2-147.2s-106.5-40.7-147.2-0.2
	C163,193.9,152,220.4,152,248C151.9,275.6,162.8,302.1,182.4,321.6z M256,336c-20.6,0.1-40.5-7.1-56.3-20.4l59.6-59.6h84.3
	C339.4,301.3,301.5,335.9,256,336z M343.6,240H264v-79.6C306.2,164.3,339.7,197.8,343.6,240z M248,160.4v84.3l-59.6,59.6
	c-31.1-37.4-26-92.8,11.3-123.9C213.4,169,230.2,162,248,160.4z"/>
<rect x="160" y="368" class="st0" width="192" height="16"/>
<rect x="192" y="400" class="st0" width="160" height="16"/>
</svg>
