<?xml version="1.0" encoding="utf-8"?>
<!-- Generator: Adobe Illustrator 23.0.2, SVG Export Plug-In . SVG Version: 6.00 Build 0)  -->
<svg version="1.1" id="Layer_1" xmlns="http://www.w3.org/2000/svg" xmlns:xlink="http://www.w3.org/1999/xlink" x="0px" y="0px"
	 viewBox="0 0 512 512" style="enable-background:new 0 0 512 512;" xml:space="preserve">
<style type="text/css">
	.st0{fill:#273374;}
</style>
<path class="st0" d="M432,496H80V16h288v40c0,13.3,10.7,24,24,24h40v152h16V72c0-2.1-0.8-4.2-2.3-5.7l-64-64
	C380.2,0.8,378.1,0,376,0H72c-4.4,0-8,3.6-8,8v496c0,4.4,3.6,8,8,8h368c4.4,0,8-3.6,8-8V360h-16V496z M384,56V27.3L420.7,64H392
	C387.6,64,384,60.4,384,56z"/>
<path class="st0" d="M232,160h48c4.4,0,8-3.6,8-8v-48h32v56h16V96c0-4.4-3.6-8-8-8H184c-4.4,0-8,3.6-8,8v144c0,4.4,3.6,8,8,8h64v-16
	h-56V104h32v48C224,156.4,227.6,160,232,160z M272,144h-32v-40h32V144z"/>
<path class="st0" d="M312,272c2.1,0,4.2-0.8,5.7-2.3l48-48l-11.3-11.3L312,252.7l-10.3-10.3l-11.3,11.3l16,16
	C307.8,271.2,309.9,272,312,272z"/>
<path class="st0" d="M328,304c35.3,0,64-28.7,64-64s-28.7-64-64-64s-64,28.7-64,64S292.7,304,328,304z M328,192
	c26.5,0,48,21.5,48,48s-21.5,48-48,48s-48-21.5-48-48S301.5,192,328,192z"/>
<path class="st0" d="M509.7,259.9l-33.5-33.5c-3.1-3.1-8.2-3.1-11.3,0l-22.3,22.3L286.3,405c-0.8,0.8-1.4,1.8-1.8,2.9l0,0
	l-19.9,53.4c-1.5,4.1,0.6,8.7,4.7,10.3c0.9,0.3,1.8,0.5,2.8,0.5s1.9-0.2,2.8-0.5l53.4-19.9l0,0c1.1-0.4,2.1-1,2.9-1.8l156.3-156.2
	l22.3-22.3C512.8,268.1,512.8,263,509.7,259.9L509.7,259.9z M295.1,425.1l15.8,15.8l-25.3,9.5L295.1,425.1z M325.4,432.8l-22.2-22.1
	L425.8,288l5.5,5.5L319.7,405l11.3,11.3l111.6-111.5l5.4,5.4L325.4,432.8z M459.4,298.8l-22.2-22.2l11-11l22.2,22.2L459.4,298.8z
	 M481.7,276.5l-22.2-22.2l11-11l22.2,22.2L481.7,276.5z"/>
<rect x="104" y="456" class="st0" width="144" height="16"/>
</svg>
