<?xml version="1.0" encoding="utf-8"?>
<!-- Generator: Adobe Illustrator 23.0.2, SVG Export Plug-In . SVG Version: 6.00 Build 0)  -->
<svg version="1.1" id="Layer_1" xmlns="http://www.w3.org/2000/svg" xmlns:xlink="http://www.w3.org/1999/xlink" x="0px" y="0px"
	 viewBox="0 0 512 512" style="enable-background:new 0 0 512 512;" xml:space="preserve">
<style type="text/css">
	.st0{fill:#273374;}
</style>
<path class="st0" d="M504,384v-88c0-16.2-12.2-29.8-28.3-31.6l-44.1-44.1c-1.8-17.4-17.4-30-34.8-28.1c-4.6,0.5-9,2-13,4.3
	l-24.2-24.2c-1.4-8.7-7.4-15.9-15.6-18.8V144c0-4.4-3.6-8-8-8h-48v16h40v1.5c-12.4,4.3-19,17.9-14.7,30.4
	c2.4,6.9,7.8,12.3,14.7,14.7v1.5h-40v16h48c4.4,0,8-3.6,8-8v-9.5c4.4-1.6,8.3-4.4,11.1-8.1l17.4,17.4c-9,15-4.2,34.4,10.8,43.4
	c4,2.4,8.4,3.9,13,4.3l43.7,43.7V384h0.2c-5.3,6.9-8.2,15.3-8.2,24v56h-48v-88c0-4.4-3.6-8-8-8h-64v-88c0-4.4-3.6-8-8-8h-96
	c-4.4,0-8,3.6-8,8v88h-64c-4.4,0-8,3.6-8,8v88H8c-4.4,0-8,3.6-8,8v32c0,4.4,3.6,8,8,8h496c4.4,0,8-3.6,8-8v-96
	c0-8.7-2.9-17.1-8.2-24H504z M472,368c-5.5,0-11,1.2-16,3.4v-47.9c9.8,5.9,22.2,5.9,32,0v47.9C483,369.2,477.5,368,472,368z
	 M488.9,391c4.5,4.5,7,10.6,7.1,17v56h-48v-56c0-6.4,2.5-12.5,7-17C464.5,382,479.4,382,488.9,391z M428,239.3l28.8,28.8
	c-5.4,2.9-9.8,7.3-12.7,12.7L415.3,252C420.6,249,425,244.6,428,239.3z M488,296c0,8.8-7.2,16-16,16s-16-7.2-16-16s7.2-16,16-16
	S488,287.2,488,296z M336,184c-4.4,0-8-3.6-8-8s3.6-8,8-8s8,3.6,8,8S340.4,184,336,184z M384,224c0-8.8,7.2-16,16-16s16,7.2,16,16
	s-7.2,16-16,16c-8.8,0.1-15.9-7-16-15.7C384,224.2,384,224.1,384,224z M368,464h-80v-80h16v40c0,4.4,3.6,8,8,8h32c4.4,0,8-3.6,8-8
	v-40h16V464z M240,384h32v80h-32V384z M320,384h16v32h-16V384z M248,288h16v32h-16V288z M216,288h16v40c0,4.4,3.6,8,8,8h32
	c4.4,0,8-3.6,8-8v-40h16v80h-80V288z M176,384h16v32h-16V384z M144,384h16v40c0,4.4,3.6,8,8,8h32c4.4,0,8-3.6,8-8v-40h16v80h-80V384
	z M16,496v-16h480v16H16z"/>
<rect x="464" y="400" class="st0" width="16" height="16"/>
<path class="st0" d="M504,0H8C3.6,0,0,3.6,0,8v96c0,8.7,2.9,17.1,8.2,24H8v88c0,16.2,12.2,29.8,28.3,31.6l44.1,44.1
	c1.9,17.4,17.4,30,34.8,28.1c4.6-0.5,9-2,13-4.3l26.2,26.2l11.3-11.3l-26.2-26.2c9-15,4.2-34.4-10.8-43.4c-4-2.4-8.4-3.9-13-4.3
	L72,212.7V128h-0.2c5.3-6.9,8.2-15.3,8.2-24V81.7c4.4,4,10.1,6.2,16,6.3c10.3-0.6,19.5-6.7,24-16c4.5,9.3,13.7,15.4,24,16
	c10.3-0.6,19.5-6.7,24-16c4.5,9.3,13.7,15.4,24,16c10.3-0.6,19.5-6.7,24-16c4.5,9.3,13.7,15.4,24,16c16.1,0,29.1-17,31.5-40H504
	c4.4,0,8-3.6,8-8V8C512,3.6,508.4,0,504,0z M84,272.7l-28.8-28.8c5.4-2.9,9.8-7.3,12.7-12.7L96.7,260C91.4,263,87,267.4,84,272.7z
	 M56,188.4c-9.8-5.9-22.2-5.9-32,0v-47.9c10.2,4.6,21.8,4.6,32,0V188.4z M23.1,121c-4.5-4.5-7-10.6-7.1-17V48h48v56
	c0,6.4-2.5,12.5-7,17C47.5,130,32.6,130,23.1,121z M24,216c0-8.8,7.2-16,16-16s16,7.2,16,16s-7.2,16-16,16S24,224.8,24,216z
	 M128,288c0,8.8-7.2,16-16,16s-16-7.2-16-16s7.2-16,16-16c8.8-0.1,15.9,7,16,15.8C128,287.9,128,287.9,128,288z M96,72
	c-6.4,0-13.4-9.9-15.4-24h30.8C109.4,62.1,102.4,72,96,72z M144,72c-6.4,0-13.4-9.9-15.4-24h30.8C157.4,62.1,150.4,72,144,72z
	 M192,72c-6.4,0-13.4-9.9-15.4-24h30.8C205.4,62.1,198.4,72,192,72z M240,72c-6.4,0-13.4-9.9-15.4-24h30.8
	C253.4,62.1,246.4,72,240,72z M496,32H16V16h480V32z"/>
<rect x="32" y="96" class="st0" width="16" height="16"/>
</svg>
