<?xml version="1.0" encoding="utf-8"?>
<!-- Generator: Adobe Illustrator 23.0.2, SVG Export Plug-In . SVG Version: 6.00 Build 0)  -->
<svg version="1.1" id="_01-Forklift" xmlns="http://www.w3.org/2000/svg" xmlns:xlink="http://www.w3.org/1999/xlink" x="0px"
	 y="0px" viewBox="0 0 512 512" style="enable-background:new 0 0 512 512;" xml:space="preserve">
<style type="text/css">
	.st0{fill:#273374;}
</style>
<path class="st0" d="M64,376c-17.7,0-32,14.3-32,32s14.3,32,32,32s32-14.3,32-32S81.7,376,64,376z M64,424c-8.8,0-16-7.2-16-16
	s7.2-16,16-16s16,7.2,16,16S72.8,424,64,424z"/>
<path class="st0" d="M328,376c-17.7,0-32,14.3-32,32s14.3,32,32,32s32-14.3,32-32S345.7,376,328,376z M328,424c-8.8,0-16-7.2-16-16
	s7.2-16,16-16s16,7.2,16,16S336.8,424,328,424z"/>
<path class="st0" d="M504,168h-88V48c0-4.4-3.6-8-8-8h-40c-4.4,0-8,3.6-8,8v8h-24c-4.4,0-8,3.6-8,8v56c0,4.4,3.6,8,8,8v88.4
	l-21.8-85.2C301.9,95.8,268.5,72,231,72H56v16h15.1L56.8,224H32c-3,0-5.8,1.7-7.2,4.4c-0.2,0.5-6.3,12.6-12.3,28.8
	C5.2,274.6,1,293.2,0,312c0,13.3,10.7,24,24,24h16v12.9c-24.2,9.6-40.1,33-40,59.1c0,35.3,28.7,64,64,64c22.8,0.1,43.9-12.1,55.2-32
	h16.7l0.1,1c0.5,4,3.9,7.1,8,7h96c4.4,0,8-3.6,8-8h24.8c11.3,19.9,32.4,32.1,55.2,32c29.1-0.1,54.6-19.8,61.9-48H408
	c4.4,0,8-3.6,8-8v-16h88c4.4,0,8-3.6,8-8V176C512,171.6,508.4,168,504,168z M416,280h16v40c0,4.4,3.6,8,8,8h32c4.4,0,8-3.6,8-8v-40
	h16v80h-80V280z M448,280h16v32h-16V280z M416,264v-80h16v40c0,4.4,3.6,8,8,8h32c4.4,0,8-3.6,8-8v-40h16v80H416z M448,184h16v32h-16
	V184z M360,352.6c-30.5-17.8-69.6-7.5-87.3,23c-8.5,14.6-10.9,32-6.6,48.4h-16.8c0.6-4.7,1.6-9.3,2.8-13.9
	c14-50.9,60.5-83.7,70.2-90.1H360V352.6z M344,72h16v40h-16V72z M360,128v148.6l-8-1.6V128H360z M294.6,267.3L267.3,240l28.7-28.7
	l29.8,29.8l7.7,30.1l-25.9-5.2C303.2,265.2,298.7,265.7,294.6,267.3z M298.9,135.8l19.2,74.9l-16.4-16.4c-3.1-3.1-8.2-3.1-11.3,0
	L276,208.7L259.3,192l18.3-18.3l-11.3-11.3l-48,48l11.3,11.3l18.3-18.3l16.7,16.7l-14.3,14.3c-3.1,3.1-3.1,8.2,0,11.3l31.9,31.9
	l-24,34.4H224v-40c0-13.3-10.7-24-24-24h-24v-8c0-63.3-47.5-64-48-64c-4.4,0-8,3.6-8,8v41.3c-3.2-0.8-6.4-1.2-9.7-1.3H104V88h127
	C261.5,87.9,288.7,107.1,298.9,135.8z M168,264h32c4.4,0,8,3.6,8,8v40h-15.1c-7.5-10.1-19.4-16-31.9-16h-2.6l-9-40.7
	c-1.9-8.5-6.6-16.2-13.4-21.8v-39.9c9.5,3.3,24,13.8,24,46.4v16C160,260.4,163.6,264,168,264z M247,328l-11.2,16h-30.1l-5.3-16H247z
	 M87.2,88H88v136H72.9L87.2,88z M16,312c1.1-16.9,4.9-33.6,11.5-49.2c3.6-9.7,7.3-18,9.6-22.8h73.3c11.3,0,21,7.8,23.5,18.8l10.4,47
	c0.8,3.7,4.1,6.3,7.8,6.3h9c8.5,0,16.4,4.5,20.7,11.9c0.8,1.4,1.5,3,2,4.5l8.7,26.1c1.1,3.3,4.1,5.5,7.6,5.5h40
	c2.6,0,5.1-1.3,6.6-3.4l50-71.4c0.5-0.7,1-1.3,1.7-1.8c1.8-1.4,4.1-2,6.3-1.6l65.4,13.3l3,9H320c-1.4,0-2.9,0.4-4.1,1.1
	c-2.4,1.5-58.1,35.6-77.3,94.9h-91.4l-7.6-62c-0.1-0.5-0.2-1.1-0.4-1.6c-3.3-9.8-12.5-16.4-22.8-16.4H24C19.6,320,16,316.4,16,312z
	 M107.4,428.5L107.4,428.5C99.5,445.4,82.6,456.1,64,456c-26.5,0-48-21.5-48-48c0-21.3,14-40,34.3-46c4.4-1.3,9.1-2,13.7-2
	c26.5,0,48,21.5,48,48C112,415.1,110.4,422.1,107.4,428.5z M125.9,424c1.4-5.2,2.1-10.6,2.1-16c0-35.3-28.7-64-64-64
	c-2.7,0-5.3,0.2-8,0.6V336h60.5c3.2,0,6.1,1.9,7.4,4.9L134,424H125.9z M232.3,432h-81.2l-2-16h85.3c-1,5.1-1.7,10.2-2.1,15.4V432z
	 M375.5,414.4l-0.1,0.4C372,438.4,351.8,456,328,456c-18.6,0.1-35.5-10.6-43.4-27.5c-3.1-6.4-4.7-13.4-4.6-20.5
	c0-26.5,21.5-48,48-48s48,21.5,48,48C376,410.2,375.9,412.3,375.5,414.4L375.5,414.4z M400,408h-8c0-15.6-5.7-30.6-16-42.2V320h8
	c4.4,0,8-3.6,8-8c0-0.9-0.1-1.7-0.4-2.5l-8-24c-0.9-2.7-3.2-4.8-6-5.3l-1.6-0.3V56h24V408L400,408z M416,384v-8h80v8H416z"/>
</svg>
