<?xml version="1.0" encoding="utf-8"?>
<!-- Generator: Adobe Illustrator 23.0.2, SVG Export Plug-In . SVG Version: 6.00 Build 0)  -->
<svg version="1.1" id="Layer_1" xmlns="http://www.w3.org/2000/svg" xmlns:xlink="http://www.w3.org/1999/xlink" x="0px" y="0px"
	 viewBox="0 0 512 512" style="enable-background:new 0 0 512 512;" xml:space="preserve">
<path d="M469.3,42.7H290.1v-8.5C290.1,15.3,274.9,0,256,0s-34.1,15.3-34.1,34.1v8.5H42.7C19.1,42.7,0,61.8,0,85.3v324.3
	c0,23.6,19.1,42.6,42.7,42.7h45L79.8,466c-5.4,9.5-5.4,21.2,0.1,30.7c5.5,9.5,15.7,15.3,26.6,15.3c11,0,21.2-5.9,26.7-15.5
	l25.3-44.3h194.9l25.3,44.3c5.5,9.6,15.7,15.5,26.8,15.5c10.9,0,21.1-5.8,26.6-15.3c5.5-9.5,5.5-21.2,0.1-30.7l-7.9-13.8h45
	c23.6,0,42.6-19.1,42.7-42.7V85.3C512,61.8,492.9,42.7,469.3,42.7z M238.9,34.1c0-9.4,7.6-17.1,17.1-17.1s17.1,7.6,17.1,17.1v8.5
	h-34.1V34.1z M118.4,488.1c-2.5,4.3-7,6.9-11.9,6.9c-4.9,0-9.4-2.6-11.8-6.8c-2.4-4.2-2.5-9.4-0.1-13.6l12.7-22.2h31.5L118.4,488.1z
	 M417.3,488.1c-2.4,4.3-7,6.9-11.9,6.8c-4.9,0-9.4-2.6-11.9-6.9l-20.4-35.8h31.5l12.7,22.2C419.8,478.7,419.8,483.9,417.3,488.1
	L417.3,488.1z M494.9,409.6c0,14.1-11.5,25.6-25.6,25.6H42.7c-14.1,0-25.6-11.5-25.6-25.6V85.3c0-14.1,11.5-25.6,25.6-25.6h426.7
	c14.1,0,25.6,11.5,25.6,25.6V409.6z"/>
<path d="M460.8,76.8H51.2c-9.4,0-17.1,7.6-17.1,17.1v307.2c0,9.4,7.6,17.1,17.1,17.1h409.6c9.4,0,17.1-7.6,17.1-17.1V93.9
	C477.9,84.4,470.2,76.8,460.8,76.8z M460.8,401.1H51.2V93.9h409.6V401.1z"/>
<path d="M85.3,247.5h25.6v76.8c0,4.7,3.8,8.5,8.5,8.5h42.7v34.1c0,4.7,3.8,8.5,8.5,8.5h119.5c4.7,0,8.5-3.8,8.5-8.5v-34.1h26.3
	c4.4,30.5,31.2,52.6,61.9,51.1s55.3-26.1,56.8-56.8c1.5-30.7-20.7-57.6-51.1-61.9V153.6c0-4.7-3.8-8.5-8.5-8.5h-47.7l-31.6-31.6
	c-1.6-1.6-3.8-2.5-6-2.5c-2.3,0-4.4,0.9-6,2.5l-34.1,34.1c-1.6,1.6-2.5,3.8-2.5,6c0,2.3,0.9,4.4,2.5,6l31.6,31.6v22.1h-59.7
	c-4.7,0-8.5,3.8-8.5,8.5v51.2h-51.2c-4.7,0-8.5,3.8-8.5,8.5v34.1H128v-68.3h25.6c9.4,0,17.1-7.6,17.1-17.1V128
	c0-9.4-7.6-17.1-17.1-17.1H85.3c-9.4,0-17.1,7.6-17.1,17.1v102.4C68.3,239.8,75.9,247.5,85.3,247.5z M426.7,324.3
	c0,23.6-19.1,42.7-42.7,42.7s-42.7-19.1-42.7-42.7c0-23.6,19.1-42.7,42.7-42.7C407.6,281.6,426.6,300.7,426.7,324.3z M276.6,153.6
	l22.1-22.1l22.1,22.1l-22.1,22.1L276.6,153.6z M238.9,230.4h59.7c4.7,0,8.5-3.8,8.5-8.5v-30.6l29.1-29.1h39.1v103.1
	c-26.2,3.8-46.7,24.4-50.5,50.5h-26.3v-34.1c0-4.7-3.8-8.5-8.5-8.5h-51.2V230.4z M179.2,290.1h102.4v68.3H179.2V290.1z M85.3,128
	h68.3l0,102.4H85.3V128z"/>
<path d="M375,348.4c1.4,0.9,3,1.4,4.7,1.4c0.6,0,1.2-0.1,1.8-0.2c2.3-0.5,4.2-1.9,5.4-3.8l21.3-34.1c1.7-2.6,1.8-5.9,0.4-8.6
	c-1.4-2.7-4.2-4.5-7.3-4.6c-3.1-0.1-6,1.5-7.6,4.1l-16.7,26.7l-5.5-3.7c-3.9-2.6-9.2-1.5-11.8,2.4c-2.6,3.9-1.6,9.2,2.3,11.8
	L375,348.4z"/>
</svg>
