<?xml version="1.0" encoding="utf-8"?>
<!-- Generator: Adobe Illustrator 23.0.2, SVG Export Plug-In . SVG Version: 6.00 Build 0)  -->
<svg version="1.1" id="Layer_1" xmlns="http://www.w3.org/2000/svg" xmlns:xlink="http://www.w3.org/1999/xlink" x="0px" y="0px"
	 viewBox="0 0 512 512" style="enable-background:new 0 0 512 512;" xml:space="preserve">
<title>039 - Money Cover</title>
<desc>Created with Sketch.</desc>
<g id="Page-1">
	<g transform="translate(0.000000, -1.000000)">
		<path id="Shape" d="M27.2,224.7c-9.2,0-17.9,4.7-22.9,12.5c-5,7.8-5.7,17.6-1.9,26l33.5,73.6c4.5,10,10.8,19,18.5,26.7l52.6,52.6
			c-3,3.1-4.6,7.3-4.7,11.6v68.3c0,9.4,7.6,17.1,17.1,17.1h93.9c9.4,0,17.1-7.6,17.1-17.1v-68.3c0-9.4-7.6-17.1-17.1-17.1v-15.9
			c0.3-20.2-6.3-39.9-18.7-55.9c-7.3-9.5-17.1-16.8-28.5-20.7c-18-7.6-34.5-18.2-48.8-31.4c-13.3-11-32.3-12-46.7-2.6l-18.4-43
			C48,231.2,38.1,224.7,27.2,224.7z M213.3,495.9h-93.9v-68.3h93.9V495.9z M55.6,292.4c5.1,11.9,12.4,22.7,21.5,31.8l39,39
			c2.1,2.2,5.3,3.1,8.3,2.3c3-0.8,5.3-3.1,6.1-6.1c0.8-3-0.1-6.2-2.3-8.3l-39-39c-3.9-3.9-7.4-8.2-10.5-12.8
			c8.2-6.3,19.7-6.1,27.6,0.5c15.9,14.6,34.4,26.3,54.4,34.5c8.2,3,15.3,8.3,20.5,15.2c10,12.9,15.3,28.9,15,45.2v15.9h-70.6
			l-59.2-59.2c-6.3-6.3-11.4-13.6-15.1-21.7L18,256.1c-1.4-3.1-1.2-6.8,0.7-9.7c1.9-2.9,5.1-4.7,8.5-4.7c4.1,0,7.7,2.4,9.3,6.2
			L55.6,292.4z"/>
		<path d="M187.7,453.3h-8.5c-4.7,0-8.5,3.8-8.5,8.5s3.8,8.5,8.5,8.5h8.5c4.7,0,8.5-3.8,8.5-8.5S192.4,453.3,187.7,453.3z"/>
		<path d="M476.1,336.7l33.5-73.6c6.1-13.7-0.2-29.8-13.9-35.9s-29.8,0.2-35.9,13.9l-18.4,43c-14.4-9.5-33.4-8.5-46.7,2.6
			c-14.4,13.2-30.9,23.8-48.9,31.4c-11.3,4-21.2,11.2-28.5,20.7c-12.4,16-19,35.7-18.7,55.9v15.9c-9.4,0-17.1,7.6-17.1,17.1v68.3
			c0,9.4,7.6,17.1,17.1,17.1h93.9c9.4,0,17.1-7.6,17.1-17.1v-68.3c0-4.3-1.7-8.5-4.6-11.6l52.6-52.6
			C465.3,355.7,471.6,346.7,476.1,336.7z M392.5,495.9h-93.9v-68.3h93.9V495.9z M386.3,410.6h-70.6v-15.9c-0.3-16.3,5-32.3,15-45.2
			c5.2-7,12.3-12.2,20.5-15.2c20.1-8.2,38.5-19.8,54.4-34.5c8-6.6,19.4-6.8,27.6-0.5c-3.1,4.6-6.6,8.9-10.5,12.8l-39,39
			c-3.2,3.3-3.2,8.7,0.1,12c3.3,3.3,8.6,3.3,12,0.1l39-39c9.1-9.1,16.4-19.9,21.5-31.8l19.1-44.5c1.6-3.7,5.3-6.1,9.3-6.1
			c3.4,0,6.7,1.8,8.5,4.7s2.1,6.5,0.7,9.7l-33.5,73.6c-3.7,8.1-8.8,15.5-15.1,21.7L386.3,410.6z"/>
		<path d="M332.8,453.3h-8.5c-4.7,0-8.5,3.8-8.5,8.5s3.8,8.5,8.5,8.5h8.5c4.7,0,8.5-3.8,8.5-8.5S337.5,453.3,332.8,453.3z"/>
		<path d="M337.1,303.5c0.3-0.2,0.5-0.5,0.8-0.7c23.7-14,43.5-33.7,57.5-57.3c0.4-0.4,0.7-0.9,1-1.3c0.1-0.3,0.2-0.5,0.3-0.8
			c28.6-49.7,28.6-110.8,0-160.5c-0.1-0.3-0.2-0.6-0.3-0.9c-0.2-0.3-0.5-0.6-0.7-0.8c-14.1-23.9-34-43.8-57.8-57.8
			c-0.3-0.2-0.5-0.5-0.8-0.7c-0.3-0.1-0.5-0.1-0.8-0.3c-49.7-28.6-110.8-28.6-160.5,0c-0.3,0.1-0.5,0.2-0.8,0.3
			c-0.3,0.2-0.5,0.5-0.8,0.7c-23.9,14.1-43.8,34-57.8,57.8c-0.3,0.3-0.5,0.5-0.7,0.8c-0.1,0.3-0.2,0.6-0.3,0.9
			c-28.6,49.7-28.6,110.8,0,160.5c0.1,0.3,0.2,0.5,0.3,0.8c0.3,0.5,0.6,0.9,1,1.3c14,23.6,33.8,43.4,57.5,57.3
			c0.3,0.2,0.5,0.5,0.8,0.7c0.4,0.2,0.7,0.3,1.1,0.5c49.5,28.4,110.4,28.4,159.9,0C336.3,303.9,336.7,303.7,337.1,303.5z
			 M335.7,284.2l-8.5-14.8c13.9-9.3,25.8-21.2,35.1-35.1l14.8,8.5C366.2,259.3,352.1,273.3,335.7,284.2z M111.4,171.7h17.1
			c1.1,16.6,5.4,32.9,12.8,47.9l-14.8,8.5C117.6,210.5,112.5,191.3,111.4,171.7z M126.5,98.2l14.8,8.5c-7.4,15-11.7,31.2-12.8,47.9
			h-17.1C112.5,135,117.6,115.8,126.5,98.2z M145.1,163.1c0-61.3,49.7-110.9,110.9-110.9s110.9,49.7,110.9,110.9
			S317.3,274.1,256,274.1C194.8,274,145.1,224.4,145.1,163.1z M264.5,35.6V18.5c19.6,1.1,38.8,6.3,56.4,15.1l-8.5,14.8
			C297.4,41,281.2,36.7,264.5,35.6z M247.5,35.6c-16.6,1.1-32.9,5.4-47.9,12.8l-8.5-14.8c17.6-8.8,36.8-14,56.4-15.1V35.6z
			 M400.6,154.6h-17.1c-1.1-16.6-5.4-32.9-12.8-47.9l14.8-8.5C394.4,115.8,399.5,135,400.6,154.6z M385.5,228.1l-14.8-8.5
			c7.4-15,11.7-31.2,12.8-47.9h17.1C399.5,191.3,394.4,210.5,385.5,228.1z M247.5,290.7v17.1c-19.6-1.1-38.8-6.3-56.4-15.1l8.5-14.8
			C214.6,285.3,230.8,289.6,247.5,290.7z M264.5,290.7c16.6-1.1,32.9-5.4,47.9-12.8l8.5,14.8c-17.6,8.8-36.8,14-56.4,15.1V290.7z
			 M377.1,83.4l-14.8,8.5c-9.3-13.9-21.2-25.8-35.1-35.1l8.5-14.8C352.2,52.9,366.2,67,377.1,83.4z M176.3,42.1l8.5,14.8
			c-13.9,9.3-25.8,21.2-35.1,35.1L135,83.4C145.8,67,159.9,52.9,176.3,42.1z M134.9,242.9l14.8-8.5c9.3,13.9,21.2,25.8,35.1,35.1
			l-8.5,14.8C159.8,273.3,145.8,259.3,134.9,242.9z"/>
		<path d="M213.3,214.3c-4.7,0-8.5,3.8-8.5,8.5c0,4.7,3.8,8.5,8.5,8.5h34.1v17.1c0,4.7,3.8,8.5,8.5,8.5c4.7,0,8.5-3.8,8.5-8.5v-17.1
			h4.3c21.2,0,38.4-17.2,38.4-38.4s-17.2-38.4-38.4-38.4h-4.3v-42.7h34.1c4.7,0,8.5-3.8,8.5-8.5c0-4.7-3.8-8.5-8.5-8.5h-34.1V77.8
			c0-4.7-3.8-8.5-8.5-8.5c-4.7,0-8.5,3.8-8.5,8.5v17.1h-4.3c-21.2,0-38.4,17.2-38.4,38.4s17.2,38.4,38.4,38.4h4.3v42.7H213.3z
			 M243.2,154.6c-11.8,0-21.3-9.6-21.3-21.3s9.6-21.3,21.3-21.3h4.3v42.7H243.2z M264.5,171.7h4.3c11.8,0,21.3,9.6,21.3,21.3
			c0,11.8-9.6,21.3-21.3,21.3h-4.3V171.7z"/>
	</g>
</g>
</svg>
