<?xml version="1.0" encoding="iso-8859-1"?>
<!-- Generator: Adobe Illustrator 19.0.0, SVG Export Plug-In . SVG Version: 6.00 Build 0)  -->
<svg version="1.1" id="Capa_1" xmlns="http://www.w3.org/2000/svg" xmlns:xlink="http://www.w3.org/1999/xlink" x="0px" y="0px"
	 viewBox="0 0 496 496" style="enable-background:new 0 0 496 496;" xml:space="preserve">
<g>
	<g>
		<path d="M368,416c-13.232,0-24,10.768-24,24s10.768,24,24,24s24-10.768,24-24S381.232,416,368,416z M368,448c-4.416,0-8-3.584-8-8
			c0-4.416,3.584-8,8-8c4.416,0,8,3.584,8,8C376,444.416,372.416,448,368,448z"/>
	</g>
</g>
<g>
	<g>
		<path d="M128,416c-13.232,0-24,10.768-24,24s10.768,24,24,24s24-10.768,24-24S141.232,416,128,416z M128,448c-4.416,0-8-3.584-8-8
			c0-4.416,3.584-8,8-8s8,3.584,8,8C136,444.416,132.416,448,128,448z"/>
	</g>
</g>
<g>
	<g>
		<path d="M425.064,320l-5.712,40H397.68c1.472-3.32,2.32-6.968,2.32-10.824c0-11.224-7.096-21.36-17.656-25.2L327.408,304
			l54.944-19.976c10.552-3.84,17.648-13.976,17.648-25.2C400,244.032,387.968,232,373.176,232h-1.864
			c-0.232,0-0.456,0.056-0.688,0.064l0.112-0.304L327.408,216l54.944-19.976c10.552-3.84,17.648-13.976,17.648-25.2
			c0-4.144-1.024-8.016-2.704-11.52L412.944,128H424c13.232,0,24-10.768,24-24s-10.768-24-24-24V24c0-13.232-10.768-24-24-24H96
			C82.768,0,72,10.768,72,24v56c-13.232,0-24,10.768-24,24s10.768,24,24,24h11.056l15.648,31.296C97.024,162.8,96,166.68,96,170.824
			c0,11.224,7.096,21.36,17.656,25.2L168.592,216l-54.936,19.976h-0.008C103.096,239.824,96,249.952,96,261.176
			C96,275.968,108.032,288,122.824,288h1.776l44,16l-54.944,19.976C103.096,327.824,96,337.952,96,349.176
			c0,3.856,0.856,7.504,2.32,10.824H76.648l-5.712-40H32v152h50.112c10.136,14.488,26.912,24,45.888,24s35.752-9.512,45.888-24
			h148.224c10.136,14.488,26.912,24,45.888,24s35.752-9.512,45.888-24H464V320H425.064z M48,456V336h9.064l14.984,104.904
			c0.088,5.232,0.88,10.296,2.312,15.096H48z M371.312,248h1.864c5.976,0,10.824,4.848,10.824,10.824
			c0,4.528-2.864,8.616-7.128,10.168L304,295.488l-32.6-11.856l96.224-34.984C368.808,248.216,370.048,248,371.312,248z
			 M248,275.128L206.4,260l41.6-15.12L289.6,260L248,275.128z M345.592,239.64L313,251.488l-41.6-15.12l32.6-11.856L345.592,239.64z
			 M88,24c0-4.416,3.584-8,8-8h304c4.416,0,8,3.584,8,8v56h-16V32H104v48H88V24z M376,48v32h-48V48H376z M312,48v32h-16V48H312z
			 M280,48v32h-64V48H280z M200,48v32h-16V48H200z M168,48v32h-48V48H168z M72,112c-4.416,0-8-3.584-8-8s3.584-8,8-8h352
			c4.416,0,8,3.584,8,8s-3.584,8-8,8H72z M100.952,128h294.104l-8,16h-13.872h-1.864H124.688h-1.864h-13.872L100.952,128z
			 M322.6,160L248,187.128L173.408,160H322.6z M119.136,180.992c-4.272-1.552-7.136-5.64-7.136-10.168
			c0-5.976,4.848-10.824,10.824-10.824h1.864c1.264,0,2.504,0.216,3.696,0.648l96.216,34.984L192,207.488L119.136,180.992z
			 M124.688,272h-1.864c-5.976,0-10.824-4.848-10.824-10.824c0-4.52,2.856-8.608,7.128-10.168l248.496-90.36
			c1.184-0.432,2.424-0.648,3.688-0.648h1.864c5.976,0,10.824,4.848,10.824,10.824c0,4.528-2.864,8.616-7.128,10.168l-248.488,90.36
			C127.192,271.784,125.952,272,124.688,272z M150.4,280.368l32.592-11.848l193.872,70.496c4.272,1.544,7.136,5.632,7.136,10.16
			c0,5.976-4.848,10.824-10.824,10.824h-1.864c-1.264,0-2.504-0.216-3.696-0.648L150.4,280.368z M322.6,360H173.408l74.6-27.128
			L322.6,360z M119.128,339.008L192,312.512l32.6,11.856l-96.216,34.984c-1.192,0.432-2.432,0.648-3.696,0.648h-1.864
			c-5.976,0-10.824-4.848-10.824-10.824C112,344.648,114.864,340.56,119.128,339.008z M128,480c-22.056,0-40-17.944-40-40
			c0-22.056,17.944-40,40-40c22.056,0,40,17.944,40,40C168,462.056,150.056,480,128,480z M314.36,456H181.64
			c1.52-5.072,2.36-10.44,2.36-16c0-8.592-2.008-16.712-5.48-24h138.96c-3.472,7.288-5.48,15.408-5.48,24
			C312,445.56,312.84,450.928,314.36,456z M368,480c-22.056,0-40-17.944-40-40c0-22.056,17.944-40,40-40c22.056,0,40,17.944,40,40
			C408,462.056,390.056,480,368,480z M412.704,406.432C402.488,392.84,386.272,384,368,384c-15.216,0-29.008,6.12-39.112,16H167.112
			c-10.104-9.88-23.904-16-39.112-16c-18.272,0-34.488,8.84-44.712,22.432L78.936,376h43.888h1.864h246.624h1.864h43.88
			L412.704,406.432z M448,456h-26.36c1.432-4.792,2.232-9.856,2.312-15.096L438.936,336H448V456z"/>
	</g>
</g>
<g>
</g>
<g>
</g>
<g>
</g>
<g>
</g>
<g>
</g>
<g>
</g>
<g>
</g>
<g>
</g>
<g>
</g>
<g>
</g>
<g>
</g>
<g>
</g>
<g>
</g>
<g>
</g>
<g>
</g>
</svg>
