<?xml version="1.0" encoding="utf-8"?>
<!-- Generator: Adobe Illustrator 23.0.2, SVG Export Plug-In . SVG Version: 6.00 Build 0)  -->
<svg version="1.1" id="Layer_3" xmlns="http://www.w3.org/2000/svg" xmlns:xlink="http://www.w3.org/1999/xlink" x="0px" y="0px"
	 viewBox="0 0 102.4 107.5" style="enable-background:new 0 0 102.4 107.5;" xml:space="preserve">
<style type="text/css">
	.st0{fill:#FFFFFF;}
	.st1{enable-background:new    ;}
</style>
<path class="st0" d="M51.2,2.4c-23.7,0-43,19.2-43,43c0,23.7,19.2,43,43,43c23.7,0,43-19.2,43-43C94.1,21.7,74.9,2.4,51.2,2.4z
	 M40,52.9c-0.1,2.9,0,6.2,0.1,9.1c0,0.4,0.1,0.5-0.2,0.8c-0.3,0.3-0.7,0.4-1.4,0.6c-1.4,0.3-2.9,0.7-4.5,1s-3.5,0.5-5.2,0.5
	c-2.4,0-5.1-0.5-7.2-1.5s-3.6-2.1-5-3.8c-1.4-1.7-2.2-3.4-2.8-5.5s-0.9-4.4-1-6.7c0-1.9,0.2-4,0.8-5.9s1.5-3.7,2.8-5.4s2.9-2.9,5-4
	s4.9-1.6,7.5-1.8c0.9-0.1,2,0,3,0c0.9,0,1.9,0.2,2.8,0.3s1.8,0.4,2.8,0.6s2,0.6,3,0.9c0,1.4,0,2.7,0.1,4.2c0,1.4,0.1,2.9,0.3,4.3
	c0,0.1-0.3,0.1-0.4,0.1s-0.4,0-0.5,0c-0.5,0-0.9-0.4-0.9-0.8c-0.4-2.2-0.8-4.5-2.6-6c-1.8-1.4-3.9-1.6-6.2-1.6c-1.8,0-4,0.5-5.6,1.3
	s-2.7,1.6-3.8,2.9c-1.1,1.3-1.6,2.7-2.1,4.4s-0.6,3.6-0.5,5.4c0.1,2.1,0.4,4.4,0.9,6.4c0.6,1.9,1.3,3.6,2.4,5.2
	c1.1,1.5,2.3,2.6,3.9,3.5s3.2,1.2,5,1.2c0.9,0,1.9-0.2,2.7-0.4c0.9-0.2,1.5-0.4,2.3-0.7c-0.2-2.6-0.2-5.6-0.2-8.1
	c0-1.1-0.1-1.4-0.8-2c-0.7-0.6-1.8-0.6-2.8-0.8c-0.2,0-0.5-0.1-0.6-0.4c-0.1-0.2-0.2-0.4-0.2-0.6c0-0.3,0-0.6,0.1-0.8
	c1.1,0.1,2.2,0.1,3.3,0.2c1.1,0,2.1,0.1,3.1,0.1s2,0,3-0.1c1,0,2-0.1,3-0.2c0.1,0.3,0.1,0.6,0.1,0.8c0,0.2,0,0.5-0.2,0.7
	s-0.3,0.2-0.4,0.2c-0.8,0.2-1.7,0.2-2.3,0.7C40.1,51.8,40.1,52,40,52.9z M61.8,73.7c-1.5-0.1-2.9-0.2-4.4-0.2
	c-1.5-0.1-3-0.1-4.7-0.1s-3.9,0-5.6,0.1s-2.9,0.1-4.5,0.2c-0.1-0.4-0.1-0.7-0.1-1.1c-0.1-0.4,0.3-0.9,0.6-1c1.4-0.3,3.1-0.4,4.2-1
	s1.3-0.8,1.3-2.1c0.1-16.5,0.3-33.4-0.2-50c-1.7,0-4.4,0-6,0c-1.5,0-2.5,0.2-3.5,0.5s-1.6,0.6-2.3,1.2c-0.7,0.5-0.9,1-1.3,1.8
	c-0.3,0.8-0.5,1.7-0.7,2.6c-0.1,0.2-0.1,0.4-0.3,0.5c-0.2,0.1-0.2,0.1-0.5,0.2c-0.3,0-0.9,0-1.2-0.2c0.2-1.1,0.1-2.8,0-3.8
	s-0.1-2,0.1-2.8c0.1-0.8,0.2-1.3,0.4-1.8c0.2-0.6,0.5-0.6,0.9-0.7c0.5-0.1,0.8,0,1.3,0s1.2,0,1.9,0s1.3,0,2,0s1.2,0,2,0
	c7.6-0.2,15.5-0.1,23.1-0.1c0.7,0,1.2,0,1.9,0c0.7,0,1.4,0,2.1,0c0.6,0,1.3,0,1.9,0s0.9-0.1,1.4,0s0.7,0.2,0.9,0.8
	c0.2,0.6,0.4,1.1,0.4,1.9s0,1.8-0.1,3c-0.2,1.1-0.1,2.8,0.1,4c-0.2,0.1-0.4,0.1-0.7,0.1c-0.2,0-0.5,0-0.7,0s-0.4-0.1-0.6-0.2
	s-0.3-0.3-0.4-0.5c-0.3-0.9-0.4-2-0.7-2.9c-0.3-0.9-0.4-1.3-1.1-1.9s-1.2-0.9-2.3-1.1c-1.1-0.3-2-0.4-3.6-0.4c-2,0-5,0.1-7.1,0.1
	c-0.2,16.6-0.1,33.4,0,49.8c0,1.3,0.2,1.5,1.3,2.2c1,0.7,2.8,0.7,4.1,1c0.3,0.1,0.8,0.5,0.7,1.1C61.9,72.8,61.9,73.4,61.8,73.7z
	 M82.2,62.1c-1.1,1-2.2,1.6-3.8,2.1c-1.6,0.5-3.6,0.7-5.5,0.7s-4.5-0.3-6.3-0.8c-1.9-0.6-3.3-1.3-4.9-2.4c0.1-1.3,0.2-2.5,0.3-3.8
	c0.1-1.3-0.1-2.5-0.3-3.8C62,54,62.3,54,62.6,54s0.7,0.1,0.9,0.3s0.4,0.6,0.6,0.9c0.7,2,1.1,3.9,2.8,5.4c1.7,1.5,3.9,1.8,6.2,1.9
	c1,0,2.2-0.1,3.1-0.4s1.7-0.7,2.3-1.2c0.7-0.6,1.1-1.1,1.5-1.8s0.6-1.4,0.6-2.2c-0.1-1.8-0.5-3.1-2.1-4.3c-1.6-1.2-3.7-2-5.7-2.7
	c-1.3-0.5-2.9-1.1-4.1-1.7s-2.2-1.3-3.2-2.1s-1.5-1.7-2-2.8c-0.5-1.2-0.8-2.5-0.8-3.8s0.2-2.4,0.7-3.6s1.2-2.1,2.2-2.9
	s2.1-1.4,3.5-1.9s2.9-0.7,4.5-0.7s3.3,0.2,5,0.5s3.5,0.9,5.2,1.6c0,1.2,0,2.3,0,3.5s-0.1,2.3,0.1,3.5c-0.3,0-0.5,0.1-0.8,0
	c-0.3,0-0.7-0.2-0.9-0.3c-0.2-0.2-0.3-0.4-0.4-0.6c-0.7-1.8-1.1-3.4-2.7-4.5c-1.7-1.1-3.5-1.3-5.5-1.4c-0.8,0-1.8,0.1-2.6,0.3
	c-0.8,0.2-1.5,0.5-2.2,1s-1.1,0.9-1.5,1.6s-0.6,1.3-0.6,2.1c0.2,1.8,0.5,2.8,2.2,4s4,2.3,6.1,3.1c2.6,1,5.8,2.4,7.7,4.2
	s2.6,3.6,2.8,6c0.1,1.5-0.2,2.7-0.7,4C83.9,60.2,83.3,61.2,82.2,62.1z"/>
<g>
	<path class="st0" d="M51.2,90.8c-25,0-45.4-20.4-45.4-45.4S26.2,0,51.2,0s45.4,20.4,45.4,45.4S76.2,90.8,51.2,90.8z M51.2,1
		C26.7,1,6.8,20.9,6.8,45.4s19.9,44.4,44.4,44.4s44.4-19.9,44.4-44.4S75.6,1,51.2,1z"/>
</g>
<g class="st1">
	<path class="st0" d="M4.7,97.9c-0.4,0-0.7,0.2-0.9,0.5s-0.4,0.8-0.4,1.3c0,0.8,0.2,1.4,0.5,1.8c0.3,0.4,0.8,0.6,1.4,0.6
		c0.3,0,0.5,0,0.6-0.1c0.2-0.1,0.3-0.2,0.4-0.2c0,0,0.1,0,0.1-0.1c0,0,0.1,0,0.1,0c0,0,0.1,0,0.1,0.1c0,0.1,0.1,0.1,0.1,0.1
		c-0.1,0.1-0.2,0.2-0.3,0.3c-0.1,0.1-0.3,0.2-0.4,0.3s-0.4,0.2-0.6,0.2c-0.2,0.1-0.5,0.1-0.8,0.1c-0.3,0-0.6-0.1-0.9-0.2
		c-0.3-0.1-0.5-0.3-0.8-0.5c-0.2-0.2-0.4-0.5-0.5-0.8c-0.1-0.3-0.2-0.7-0.2-1.1c0-0.4,0.1-0.8,0.2-1.1c0.2-0.3,0.4-0.6,0.6-0.9
		C3.4,98,3.7,97.8,4,97.6c0.3-0.1,0.6-0.2,0.9-0.2c0.3,0,0.6,0,0.8,0.1c0.2,0.1,0.4,0.1,0.6,0.3c0.2,0.1,0.3,0.2,0.4,0.4
		c0.1,0.1,0.1,0.3,0.1,0.4c0,0,0,0.1-0.1,0.1c-0.1,0-0.2,0.1-0.3,0.1c-0.1,0-0.2,0-0.3,0c-0.1,0-0.1,0-0.2,0c-0.1,0-0.2,0-0.2-0.2
		c-0.1-0.1-0.1-0.2-0.2-0.3c-0.1-0.1-0.2-0.2-0.3-0.3C5.1,97.9,5,97.9,4.7,97.9z"/>
	<path class="st0" d="M11.4,100.1c0-0.4,0.1-0.7,0.2-1c0.1-0.3,0.3-0.6,0.6-0.9c0.2-0.2,0.5-0.4,0.8-0.6c0.3-0.1,0.7-0.2,1-0.2
		c0.4,0,0.8,0.1,1.1,0.2s0.6,0.3,0.8,0.5c0.2,0.2,0.4,0.5,0.6,0.8s0.2,0.7,0.2,1.1c0,0.4-0.1,0.7-0.2,1c-0.1,0.3-0.3,0.6-0.6,0.8
		c-0.2,0.2-0.5,0.4-0.8,0.6c-0.3,0.1-0.7,0.2-1.1,0.2c-0.4,0-0.8-0.1-1.1-0.2s-0.6-0.3-0.8-0.5c-0.2-0.2-0.4-0.5-0.6-0.8
		C11.5,100.9,11.4,100.5,11.4,100.1z M12.6,99.7c0,0.3,0,0.6,0.1,0.9c0.1,0.3,0.2,0.6,0.3,0.8c0.1,0.3,0.3,0.5,0.5,0.6
		s0.5,0.2,0.8,0.2c0.5,0,0.8-0.2,1.1-0.5c0.3-0.3,0.4-0.7,0.4-1.2c0-0.3,0-0.6-0.1-0.9c-0.1-0.3-0.2-0.6-0.3-0.9
		c-0.1-0.3-0.3-0.5-0.5-0.7c-0.2-0.2-0.5-0.3-0.8-0.3c-0.4,0-0.8,0.1-1,0.4C12.7,98.6,12.6,99.1,12.6,99.7z"/>
	<path class="st0" d="M25.1,97.4c0.2,0,0.4,0.1,0.5,0.2c0.1,0.1,0.2,0.2,0.2,0.4c0,0,0,0.1,0,0.1c0,0-0.1,0.1-0.1,0.1
		c-0.1,0-0.1,0.1-0.3,0.2c-0.1,0.1-0.3,0.1-0.5,0.2c-0.1-0.1-0.2-0.2-0.3-0.2c-0.1-0.1-0.2-0.1-0.3-0.1c-0.1,0-0.3,0-0.4,0.1
		c-0.1,0.1-0.2,0.2-0.3,0.3s-0.1,0.3-0.2,0.5s-0.1,0.3-0.1,0.5v2.1c0,0.2,0.1,0.3,0.3,0.4s0.4,0.1,0.8,0.2c0.1,0,0.1,0.1,0.1,0.1
		c0,0,0,0.1,0,0.2c-0.1,0-0.2,0-0.3,0s-0.3,0-0.4,0c-0.1,0-0.3,0-0.4,0c-0.2,0-0.3,0-0.4,0c-0.2,0-0.4,0-0.7,0c-0.2,0-0.5,0-0.7,0
		c0-0.1,0-0.1,0-0.2c0-0.1,0-0.1,0.1-0.1c0.2,0,0.3-0.1,0.5-0.1c0.1-0.1,0.2-0.2,0.2-0.3v-3c0-0.2,0-0.3,0-0.4s-0.1-0.2-0.1-0.3
		c0-0.1-0.1-0.1-0.2-0.2S21.9,98,21.7,98c-0.1,0-0.2-0.1-0.2-0.2c0,0,0-0.1,0-0.2c0.1,0,0.2,0,0.4,0s0.3,0,0.5,0
		c0.2,0,0.3-0.1,0.5-0.1c0.1,0,0.2-0.1,0.3-0.1c0.1,0,0.2,0.1,0.2,0.2v0.8c0.3-0.3,0.5-0.5,0.8-0.7C24.5,97.5,24.8,97.4,25.1,97.4z"
		/>
	<path class="st0" d="M30.9,98.6c0-0.2,0-0.4-0.1-0.5C30.7,98,30.5,98,30.3,98c-0.1,0-0.2-0.1-0.2-0.2c0,0,0-0.1,0-0.2
		c0.1,0,0.2,0,0.4,0c0.2,0,0.3,0,0.4-0.1c0.2,0,0.3-0.1,0.5-0.1s0.2-0.1,0.3-0.1c0.1,0,0.2,0.1,0.2,0.2c0,0.1,0,0.2,0,0.3
		c0,0.1,0,0.3,0,0.6c0.2-0.3,0.5-0.6,0.8-0.8c0.3-0.2,0.7-0.3,1.1-0.3c0.3,0,0.5,0.1,0.8,0.2c0.3,0.1,0.5,0.3,0.7,0.5
		c0.2,0.2,0.3,0.5,0.5,0.8c0.1,0.3,0.2,0.7,0.2,1.1c0,0.4-0.1,0.8-0.3,1.2s-0.4,0.6-0.6,0.9s-0.5,0.4-0.8,0.5s-0.6,0.2-0.8,0.2
		c-0.3,0-0.5,0-0.8-0.1s-0.5-0.1-0.8-0.3v2.2c0,0.2,0.1,0.3,0.3,0.4c0.2,0.1,0.5,0.1,0.9,0.2c0.1,0,0.1,0.1,0.1,0.2c0,0,0,0.1,0,0.2
		c-0.2,0-0.4,0-0.8,0c-0.3,0-0.6,0-0.9,0c-0.2,0-0.4,0-0.7,0c-0.2,0-0.5,0-0.7,0c0-0.1,0-0.1,0-0.2c0-0.1,0-0.1,0.1-0.1
		c0.2,0,0.3-0.1,0.4-0.1c0.1-0.1,0.2-0.1,0.2-0.3V98.6z M31.9,101.7c0.2,0.2,0.4,0.4,0.7,0.5c0.2,0.1,0.5,0.2,0.8,0.2
		c0.2,0,0.4-0.1,0.6-0.2c0.2-0.1,0.3-0.2,0.4-0.4c0.1-0.2,0.2-0.4,0.3-0.6c0.1-0.3,0.1-0.5,0.1-0.8c0-0.3,0-0.6-0.1-0.9
		c-0.1-0.3-0.2-0.5-0.3-0.7c-0.1-0.2-0.3-0.4-0.5-0.5S33.5,98,33.3,98c-0.2,0-0.3,0-0.5,0.1s-0.3,0.2-0.4,0.4
		c-0.1,0.1-0.2,0.3-0.3,0.5s-0.1,0.4-0.1,0.5V101.7z"/>
	<path class="st0" d="M40.8,100.1c0-0.4,0.1-0.7,0.2-1c0.1-0.3,0.3-0.6,0.6-0.9c0.2-0.2,0.5-0.4,0.8-0.6c0.3-0.1,0.7-0.2,1-0.2
		c0.4,0,0.8,0.1,1.1,0.2s0.6,0.3,0.8,0.5c0.2,0.2,0.4,0.5,0.6,0.8s0.2,0.7,0.2,1.1c0,0.4-0.1,0.7-0.2,1c-0.1,0.3-0.3,0.6-0.6,0.8
		c-0.2,0.2-0.5,0.4-0.8,0.6c-0.3,0.1-0.7,0.2-1.1,0.2c-0.4,0-0.8-0.1-1.1-0.2s-0.6-0.3-0.8-0.5c-0.2-0.2-0.4-0.5-0.6-0.8
		C40.8,100.9,40.8,100.5,40.8,100.1z M41.9,99.7c0,0.3,0,0.6,0.1,0.9c0.1,0.3,0.2,0.6,0.3,0.8c0.1,0.3,0.3,0.5,0.5,0.6
		s0.5,0.2,0.8,0.2c0.5,0,0.8-0.2,1.1-0.5c0.3-0.3,0.4-0.7,0.4-1.2c0-0.3,0-0.6-0.1-0.9c-0.1-0.3-0.2-0.6-0.3-0.9
		c-0.1-0.3-0.3-0.5-0.5-0.7c-0.2-0.2-0.5-0.3-0.8-0.3c-0.4,0-0.8,0.1-1,0.4C42,98.6,41.9,99.1,41.9,99.7z"/>
	<path class="st0" d="M54.4,97.4c0.2,0,0.4,0.1,0.5,0.2c0.1,0.1,0.2,0.2,0.2,0.4c0,0,0,0.1,0,0.1c0,0-0.1,0.1-0.1,0.1
		c-0.1,0-0.1,0.1-0.3,0.2c-0.1,0.1-0.3,0.1-0.5,0.2c-0.1-0.1-0.2-0.2-0.3-0.2c-0.1-0.1-0.2-0.1-0.3-0.1c-0.1,0-0.3,0-0.4,0.1
		c-0.1,0.1-0.2,0.2-0.3,0.3s-0.1,0.3-0.2,0.5s-0.1,0.3-0.1,0.5v2.1c0,0.2,0.1,0.3,0.3,0.4c0.2,0.1,0.4,0.1,0.8,0.2
		c0.1,0,0.1,0.1,0.1,0.1c0,0,0,0.1,0,0.2c-0.1,0-0.2,0-0.3,0s-0.3,0-0.4,0c-0.1,0-0.3,0-0.4,0c-0.2,0-0.3,0-0.4,0
		c-0.2,0-0.4,0-0.7,0c-0.2,0-0.5,0-0.7,0c0-0.1,0-0.1,0-0.2c0-0.1,0-0.1,0.1-0.1c0.2,0,0.3-0.1,0.5-0.1c0.1-0.1,0.2-0.2,0.2-0.3v-3
		c0-0.2,0-0.3,0-0.4c0-0.1-0.1-0.2-0.1-0.3c0-0.1-0.1-0.1-0.2-0.2S51.2,98,51,98c-0.1,0-0.2-0.1-0.2-0.2c0,0,0-0.1,0-0.2
		c0.1,0,0.2,0,0.4,0c0.2,0,0.3,0,0.5,0c0.2,0,0.3-0.1,0.5-0.1c0.1,0,0.2-0.1,0.3-0.1c0.1,0,0.2,0.1,0.2,0.2v0.8
		c0.3-0.3,0.5-0.5,0.8-0.7C53.8,97.5,54.1,97.4,54.4,97.4z"/>
	<path class="st0" d="M64.3,102.3c0.1,0,0.1,0.1,0.1,0.3c-0.2,0.1-0.5,0.2-0.8,0.2c-0.2,0-0.3,0-0.5-0.1c-0.1-0.1-0.2-0.1-0.3-0.2
		c-0.1-0.1-0.2-0.2-0.2-0.3c0-0.1-0.1-0.2-0.1-0.3c-0.2,0.4-0.4,0.6-0.7,0.7c-0.3,0.1-0.6,0.2-1,0.2c-0.2,0-0.3,0-0.5,0
		c-0.2,0-0.3-0.1-0.5-0.2s-0.3-0.2-0.4-0.4c-0.1-0.2-0.2-0.4-0.2-0.6c0-0.3,0.1-0.5,0.2-0.8c0.1-0.2,0.3-0.4,0.5-0.5
		c0.2-0.1,0.5-0.2,0.7-0.3c0.3-0.1,0.5-0.1,0.8-0.2c0.1,0,0.3,0,0.4-0.1c0.1,0,0.2-0.1,0.3-0.1c0.1,0,0.2-0.1,0.2-0.1
		c0-0.1,0-0.2,0-0.3c0-0.4-0.1-0.7-0.2-0.9c-0.1-0.2-0.4-0.4-0.8-0.4c-0.1,0-0.3,0-0.3,0c-0.1,0-0.2,0.1-0.2,0.1
		c-0.1,0.1-0.1,0.2-0.2,0.3c0,0.1-0.1,0.2-0.1,0.4c0,0.1-0.1,0.2-0.2,0.2S60.2,99,60,99.1c0,0-0.1,0-0.2,0c-0.1,0-0.1,0-0.2,0
		c-0.1,0-0.1-0.1-0.1-0.3c0-0.2,0.1-0.4,0.2-0.5c0.1-0.2,0.3-0.3,0.5-0.5s0.4-0.2,0.7-0.3c0.2-0.1,0.5-0.1,0.7-0.1
		c0.3,0,0.5,0,0.8,0.1c0.2,0,0.4,0.1,0.6,0.3s0.3,0.3,0.4,0.5c0.1,0.2,0.1,0.5,0.1,0.8v2.1c0,0.3,0,0.5,0,0.6c0,0.1,0,0.2,0.1,0.3
		c0.1,0.1,0.1,0.2,0.2,0.2c0.1,0,0.1,0.1,0.2,0.1c0.1,0,0.2,0,0.2,0C64.2,102.3,64.2,102.3,64.3,102.3z M62.4,100L62,100
		c-0.2,0-0.4,0.1-0.6,0.1s-0.4,0.1-0.5,0.2c-0.2,0.1-0.3,0.2-0.4,0.4c-0.1,0.2-0.1,0.3-0.1,0.6c0,0.3,0.1,0.5,0.2,0.7
		c0.2,0.2,0.4,0.2,0.6,0.2c0.2,0,0.3,0,0.5-0.1c0.1-0.1,0.3-0.2,0.4-0.3c0.1-0.1,0.2-0.3,0.3-0.4s0.1-0.4,0.1-0.6V100z"/>
	<path class="st0" d="M71.7,101.9c0,0,0.1-0.1,0.1-0.1c0,0,0,0,0.1,0c0.1,0,0.1,0.1,0.2,0.2c-0.2,0.2-0.4,0.4-0.7,0.6
		c-0.2,0.1-0.5,0.2-0.8,0.2c-0.2,0-0.3,0-0.5-0.1c-0.1,0-0.3-0.1-0.4-0.2c-0.1-0.1-0.2-0.2-0.2-0.4c-0.1-0.2-0.1-0.4-0.1-0.7v-3.3
		h-0.7v-0.1c0-0.1,0-0.1,0-0.2c0,0,0.1-0.1,0.1-0.1c0.2,0,0.4-0.1,0.5-0.2c0.1-0.1,0.2-0.3,0.3-0.4c0.1-0.2,0.2-0.4,0.3-0.5
		s0.2-0.3,0.2-0.3h0.2v1.2h1.4c0,0.2,0,0.3-0.1,0.4s-0.1,0.1-0.2,0.1h-1.2v3c0,0.3,0,0.5,0,0.6c0,0.2,0.1,0.3,0.1,0.4
		s0.1,0.1,0.2,0.2c0.1,0,0.1,0,0.2,0c0.1,0,0.3,0,0.4-0.1C71.5,102.1,71.6,102,71.7,101.9z"/>
	<path class="st0" d="M77.8,102.6c-0.1,0-0.3,0-0.4,0c-0.1,0-0.3,0-0.4,0c-0.1,0-0.2,0-0.3,0s-0.1,0-0.2,0c0,0,0,0,0-0.1
		c0,0,0-0.1,0-0.1c0-0.1,0-0.1,0.1-0.1c0.2,0,0.4-0.1,0.5-0.1s0.2-0.1,0.2-0.3v-3.3c0-0.2,0-0.4-0.1-0.5c-0.1-0.1-0.3-0.2-0.5-0.2
		c-0.1,0-0.2-0.1-0.2-0.2c0,0,0-0.1,0-0.2c0.1,0,0.2,0,0.4,0c0.2,0,0.3,0,0.5,0c0.2,0,0.4-0.1,0.5-0.1s0.3-0.1,0.3-0.1
		c0.1,0,0.2,0.1,0.2,0.2c0,0.1,0,0.2,0,0.4c0,0.2,0,0.4,0,0.6v3.3c0,0.1,0.1,0.2,0.2,0.3s0.3,0.1,0.5,0.1c0.1,0,0.1,0.1,0.1,0.1
		c0,0,0,0.1,0,0.1c0,0,0,0.1,0,0.1c0,0-0.1,0-0.2,0s-0.2,0-0.3,0c-0.1,0-0.2,0-0.4,0S78,102.6,77.8,102.6z M77.1,95.4
		c0-0.2,0.1-0.4,0.2-0.5s0.3-0.2,0.5-0.2c0.2,0,0.4,0.1,0.5,0.2s0.2,0.3,0.2,0.5c0,0.2-0.1,0.4-0.2,0.5s-0.3,0.2-0.5,0.2
		c-0.2,0-0.4-0.1-0.5-0.2S77.1,95.6,77.1,95.4z"/>
	<path class="st0" d="M83.8,100.1c0-0.4,0.1-0.7,0.2-1c0.1-0.3,0.3-0.6,0.6-0.9c0.2-0.2,0.5-0.4,0.8-0.6c0.3-0.1,0.7-0.2,1-0.2
		c0.4,0,0.8,0.1,1.1,0.2s0.6,0.3,0.8,0.5s0.4,0.5,0.6,0.8s0.2,0.7,0.2,1.1c0,0.4-0.1,0.7-0.2,1c-0.1,0.3-0.3,0.6-0.6,0.8
		c-0.2,0.2-0.5,0.4-0.8,0.6c-0.3,0.1-0.7,0.2-1,0.2c-0.4,0-0.8-0.1-1.1-0.2s-0.6-0.3-0.8-0.5c-0.2-0.2-0.4-0.5-0.6-0.8
		C83.9,100.9,83.8,100.5,83.8,100.1z M84.9,99.7c0,0.3,0,0.6,0.1,0.9c0.1,0.3,0.2,0.6,0.3,0.8s0.3,0.5,0.5,0.6s0.5,0.2,0.8,0.2
		c0.5,0,0.8-0.2,1.1-0.5c0.3-0.3,0.4-0.7,0.4-1.2c0-0.3,0-0.6-0.1-0.9c-0.1-0.3-0.2-0.6-0.3-0.9c-0.1-0.3-0.3-0.5-0.5-0.7
		c-0.2-0.2-0.5-0.3-0.8-0.3c-0.4,0-0.8,0.1-1,0.4S84.9,99.1,84.9,99.7z"/>
	<path class="st0" d="M99.3,101.9c0,0.1,0.1,0.2,0.2,0.3c0.1,0.1,0.3,0.1,0.5,0.1c0.1,0,0.1,0.1,0.1,0.1c0,0,0,0.1,0,0.2
		c-0.2,0-0.4,0-0.6,0c-0.2,0-0.4,0-0.6,0c-0.2,0-0.4,0-0.6,0c-0.2,0-0.4,0-0.6,0c0-0.1,0-0.1,0-0.2c0-0.1,0-0.1,0.1-0.1
		c0.2,0,0.3-0.1,0.5-0.1c0.1-0.1,0.2-0.2,0.2-0.3v-2.4c0-0.2,0-0.4,0-0.6c0-0.2-0.1-0.3-0.1-0.4s-0.2-0.2-0.3-0.3
		c-0.1-0.1-0.3-0.1-0.4-0.1c-0.2,0-0.4,0-0.6,0.1c-0.2,0.1-0.4,0.2-0.5,0.3c-0.1,0.1-0.3,0.3-0.4,0.5c-0.1,0.2-0.1,0.4-0.1,0.7v2.2
		c0,0.1,0.1,0.2,0.2,0.3c0.1,0.1,0.3,0.1,0.5,0.1c0.1,0,0.1,0.1,0.1,0.1c0,0,0,0.1,0,0.2c-0.2,0-0.4,0-0.6,0c-0.2,0-0.4,0-0.6,0
		c-0.2,0-0.5,0-0.7,0c-0.2,0-0.4,0-0.6,0c0-0.1,0-0.1,0-0.2c0-0.1,0-0.1,0.1-0.1c0.2,0,0.3-0.1,0.5-0.1c0.1-0.1,0.2-0.2,0.2-0.3
		v-3.3c0-0.2,0-0.4-0.1-0.5c-0.1-0.1-0.3-0.2-0.5-0.2c-0.1,0-0.2-0.1-0.2-0.2c0,0,0-0.1,0-0.2c0.1,0,0.2,0,0.4,0c0.2,0,0.3,0,0.5,0
		c0.2,0,0.4-0.1,0.5-0.1s0.3-0.1,0.3-0.1c0.1,0,0.2,0.1,0.2,0.2c0,0.1,0,0.2,0,0.4c0,0.2,0,0.4,0,0.6c0.3-0.4,0.7-0.7,1-0.9
		c0.3-0.2,0.7-0.3,1-0.3c0.5,0,0.9,0.1,1.1,0.4c0.2,0.3,0.4,0.7,0.4,1.2V101.9z"/>
</g>
</svg>
